<svg width="512" height="512" viewBox="0 0 29 32" fill="none" xmlns="http://www.w3.org/2000/svg">
    <path
        d="M28.7783 15.3457C28.7783 15.3457 28.7879 15.7278 28.7513 16.3946C28.7339 16.7907 28.6992 17.1848 28.6529 17.5769C28.6529 17.5789 28.6529 17.5828 28.651 17.5868C28.6471 17.6127 28.6452 17.6366 28.6414 17.6585C28.5739 18.2138 28.4813 18.7651 28.3772 19.3145C28.0088 21.2769 27.2394 23.0543 26.09 24.6625C25.5635 25.4009 25.0004 26.1055 24.3833 26.7663C23.4153 27.8053 22.3585 28.7169 21.2052 29.4951C21.1493 29.5369 21.078 29.5847 20.9893 29.6384H20.9873C20.4532 29.9887 19.8978 30.3092 19.3212 30.6017C18.9933 30.7689 18.6597 30.9222 18.3241 31.0635C18.3203 31.0655 18.3164 31.0675 18.3126 31.0675C18.0137 31.1949 17.7186 31.3103 17.4178 31.4118L17.4139 31.4138C17.1632 31.5034 16.631 31.6805 15.9907 31.8119H15.9869C15.8982 31.8318 15.8094 31.8497 15.7188 31.8676H15.7169C14.932 32.0388 14.0738 31.995 14.0738 31.995C13.8212 31.987 13.5686 31.9651 13.3198 31.9313H13.3179C13.1463 31.9114 12.9765 31.8815 12.8184 31.8477C11.2409 31.5392 9.93538 30.8466 9.88524 30.8187H9.88331C9.82739 30.7928 9.77146 30.7669 9.71554 30.7391C9.6654 30.7152 9.61333 30.6893 9.56319 30.6654C8.96344 30.3709 8.38683 30.0405 7.82951 29.6802C6.99449 29.1388 6.20576 28.5258 5.45945 27.8491C4.36794 26.8579 3.39986 25.7473 2.56484 24.5152C1.95738 23.6196 1.42513 22.6841 1.04136 21.6631C0.601677 20.4967 0.331694 19.2866 0.16199 18.0486C0.106065 17.6446 0.0674963 17.2405 0.0462833 16.8325V16.8245C0.0173565 16.3628 0 15.3755 0 15.3755V1.73169C0.0347121 1.41522 0.0790672 1.10473 0.271912 0.83603C0.64796 0.312568 1.11657 -0.00588854 1.77418 8.25158e-05C3.08938 0.0120246 4.40458 0.00406346 5.71979 0.00406346H26.9058C27.7369 0.00406346 28.3752 0.451892 28.6876 1.25002C28.7744 1.47294 28.7744 1.7078 28.7763 1.94267C28.7763 1.94267 28.7783 2.01034 28.7763 2.03422V14.5416C28.7802 14.5675 28.7821 14.5933 28.7763 14.6172V14.6749C28.7783 14.8979 28.7802 15.1208 28.7783 15.3457Z"
        fill="url(#paint0_radial_2024_65)" />
    <path
        d="M27.4991 2.04826C27.4991 2.00447 27.4972 1.95869 27.4933 1.9149C27.4798 1.71985 27.3892 1.56659 27.2407 1.44916C27.0941 1.33173 26.9225 1.32178 26.747 1.32178H14.4069C10.2838 1.32178 6.15883 1.32178 2.03387 1.32178C1.53055 1.32178 1.28563 1.57256 1.28563 2.09204C1.2837 6.11852 1.27985 10.147 1.28177 14.1755C1.28177 15.6364 1.35506 17.0893 1.60383 18.5304C1.82946 19.832 2.17658 21.0959 2.79561 22.2643C3.8254 24.2108 5.20617 25.8588 6.8685 27.2561C8.71788 28.8125 10.7737 29.951 13.1225 30.4745C13.6181 30.5839 14.1176 30.7133 14.6306 30.6516C15.7491 30.5182 16.8271 30.2157 17.8646 29.7699C20.5143 28.6314 22.7031 26.862 24.4965 24.5631C25.4877 23.2933 26.2977 21.9199 26.7605 20.3436C27.2561 18.6557 27.4721 16.9241 27.4818 15.1726C27.5068 10.7998 27.4953 6.42504 27.4991 2.05025V2.04826ZM25.3065 18.2617C24.9381 20.4331 23.9758 22.2921 22.5777 23.9282C21.0311 25.7394 19.201 27.1386 17.0006 27.9925C16.181 28.3109 15.3383 28.5279 14.4666 28.6015C14.1118 28.6314 13.757 28.5378 13.4079 28.4642C12.409 28.2532 11.4737 27.9109 10.5924 27.4611C10.5924 27.4611 10.5885 27.4611 10.5866 27.4591C10.5345 27.4332 10.4825 27.4053 10.4304 27.3775V27.3715C9.58762 26.8958 7.7903 25.5344 7.62059 25.3811C6.33046 24.2168 5.25246 22.8693 4.45408 21.2969C3.90254 20.2122 3.60556 19.0439 3.42236 17.8417C3.1813 16.2614 3.18901 14.6691 3.20058 13.0768C3.20058 12.9375 3.20058 9.8982 3.20058 9.31105C3.20251 7.4441 3.20058 5.57914 3.20058 3.71219C3.20058 1.84524 3.28351 3.29422 3.6017 3.29422C7.20019 3.29422 10.7987 3.29422 14.3992 3.29422H25.1329C25.1985 3.29422 25.264 3.29422 25.3277 3.30019C25.4704 3.3181 25.5495 3.40568 25.5707 3.54898C25.5765 3.59277 25.5745 3.63855 25.5745 3.68233C25.5745 7.20725 25.5784 10.7342 25.5784 14.2591C25.5784 17.784 25.4453 17.4237 25.3045 18.2597L25.3065 18.2617Z"
        fill="black" />
    <path
        d="M28.2584 16.6313C28.3105 18.9242 27.3983 20.7076 25.4641 21.8222C23.4971 22.9567 21.5204 22.8094 19.644 21.5137C18.9016 21.0002 18.3655 20.2956 17.9296 19.4915C17.1737 18.0923 15.8006 17.2523 14.3832 17.2523C12.9677 17.2543 11.5927 18.0923 10.8368 19.4935C10.4029 20.2976 9.86481 21.0041 9.12235 21.5157C7.24597 22.8114 5.27124 22.9587 3.30229 21.8242C1.36805 20.7096 0.455898 18.9262 0.507967 16.6333C0.534965 15.4391 0.978508 14.3902 1.63032 13.4328C1.83474 13.1323 2.124 12.8895 2.39399 12.6447C3.73619 11.4325 5.09575 10.2403 6.42252 9.01227C6.9837 8.49279 7.55838 8.02307 8.29505 7.80214C10.3855 7.17319 12.5435 8.33157 13.2339 10.4573C13.2647 10.5528 13.2956 10.6483 13.3341 10.7678C13.6678 10.4951 14.0168 10.3518 14.3813 10.3438C14.7458 10.3518 15.0948 10.4931 15.4284 10.7658C15.467 10.6464 15.4959 10.5508 15.5268 10.4553C16.2172 8.32958 18.3751 7.1712 20.4656 7.80015C21.2022 8.02108 21.775 8.4908 22.3381 9.01028C23.6668 10.2383 25.0263 11.4305 26.3666 12.6427C26.6366 12.8875 26.9259 13.1303 27.1303 13.4309C27.7821 14.3882 28.2256 15.4371 28.2526 16.6313H28.2584ZM22.7662 21.1455C25.0321 21.1455 26.8661 19.2566 26.8642 16.9239C26.8622 14.5713 25.0476 12.6964 22.7913 12.6785C20.5755 12.6606 18.6509 14.5315 18.6663 16.9558C18.6817 19.2586 20.5118 21.1435 22.7662 21.1455ZM16.0571 14.9097C16.0571 13.9444 15.3127 13.1582 14.3832 13.1283C13.4537 13.1582 12.7093 13.9444 12.7093 14.9117C12.7093 15.879 13.4537 16.6632 14.3832 16.693C15.3127 16.6632 16.0571 15.877 16.0571 14.9097ZM10.104 16.9578C10.1213 14.5335 8.1967 12.6626 5.97898 12.6805C3.72269 12.6984 1.90802 14.5733 1.90609 16.9259C1.90416 19.2586 3.73812 21.1474 6.00405 21.1474C8.25841 21.1474 10.0886 19.2626 10.104 16.9578Z"
        fill="black" />
    <path
        d="M26.8639 16.9243C26.8658 19.257 25.0319 21.1458 22.7659 21.1458C20.5116 21.1458 18.6815 19.2609 18.6661 16.9561C18.6487 14.5319 20.5733 12.6609 22.791 12.6788C25.0492 12.6968 26.862 14.5717 26.8639 16.9243Z"
        fill="#0156FB" />
    <path
        d="M15.9974 7.0578C16.8093 6.47463 17.9856 6.46468 18.6702 7.06179C17.0002 7.29864 15.8257 8.21022 15.0871 9.77663C14.7516 8.82524 15.1527 7.66685 15.9974 7.0578Z"
        fill="black" />
    <path
        d="M14.3848 13.1284C15.3144 13.1583 16.0587 13.9445 16.0587 14.9098C16.0587 15.8751 15.3144 16.6613 14.3848 16.6911C13.4553 16.6633 12.7109 15.8771 12.7109 14.9098C12.7109 13.9425 13.4553 13.1583 14.3848 13.1284ZM15.4898 15.8632C15.486 15.8711 15.4821 15.8791 15.4783 15.8851C15.4841 15.8791 15.4879 15.8711 15.4898 15.8632ZM13.2895 15.8851C13.2856 15.8771 13.2818 15.8711 13.2779 15.8632C13.2798 15.8711 13.2837 15.8791 13.2895 15.8851Z"
        fill="#0156FB" />
    <path
        d="M15.4785 15.8847C15.4821 15.877 15.4857 15.8712 15.4893 15.8635C15.4875 15.8712 15.4839 15.879 15.4785 15.8847Z"
        fill="black" />
    <path
        d="M12.7783 6.9763C13.623 7.58336 14.0241 8.74373 13.6886 9.69313C12.95 8.12871 11.7755 7.21514 10.1055 6.97829C10.7901 6.38118 11.9665 6.39114 12.7783 6.97431V6.9763Z"
        fill="black" />
    <path
        d="M13.29 15.8864C13.2846 15.8807 13.281 15.8729 13.2793 15.8652C13.2828 15.8729 13.2864 15.8807 13.29 15.8864Z"
        fill="black" />
    <path
        d="M5.97719 12.6808C8.19298 12.6629 10.1176 14.5338 10.1022 16.9581C10.0867 19.2609 8.25662 21.1458 6.00226 21.1477C3.73633 21.1477 1.90238 19.2589 1.9043 16.9262C1.90623 14.5736 3.7209 12.6987 5.97719 12.6808Z"
        fill="#0156FB" />
    <defs>
        <radialGradient id="paint0_radial_2024_65" cx="0" cy="0" r="1" gradientUnits="userSpaceOnUse"
            gradientTransform="translate(14.5868 14.8919) scale(27.2143 28.0878)">
            <stop stop-color="#0156FB" />
            <stop offset="1" stop-color="#102160" />
        </radialGradient>
    </defs>
</svg>